<svg width="1440" height="1024" viewBox="0 0 1440 1024" fill="none" xmlns="http://www.w3.org/2000/svg">
<g clip-path="url(#clip0_1_2)">
<rect width="1440" height="1024" fill="white"/>
<rect width="1440" height="1024" fill="#09234A"/>
<path d="M1014.78 732V734H1016.78H1028.85H1030.85V732V682.295C1030.85 679.087 1031.61 676.305 1033.1 673.889C1034.65 671.401 1036.74 669.463 1039.4 668.058L1039.4 668.058L1039.4 668.054C1042.08 666.625 1045.16 665.886 1048.69 665.886C1050.19 665.886 1051.6 665.998 1052.91 666.217L1052.94 666.222L1052.96 666.225C1054.46 666.434 1055.28 666.574 1055.57 666.645L1058.05 667.266V664.705V652.432V650.622L1056.25 650.442C1055.49 650.366 1054.43 650.314 1053.09 650.279C1051.75 650.245 1050.62 650.227 1049.71 650.227C1044.64 650.227 1040.04 651.537 1035.95 654.178L1037.03 655.858L1035.95 654.178C1033.76 655.586 1031.92 657.237 1030.44 659.13V653.455V651.455H1028.44H1016.78H1014.78V653.455V732Z" stroke="white" stroke-width="4"/>
<path d="M945.262 730.326L945.268 730.33L945.274 730.333C951.128 733.897 958.03 735.636 965.899 735.636C971.423 735.636 976.461 734.786 980.985 733.049L980.998 733.044C985.496 731.281 989.322 728.814 992.438 725.625L992.446 725.617C995.559 722.393 997.784 718.644 999.105 714.388L999.714 712.425L997.735 711.87L986.076 708.597L984.308 708.101L983.663 709.82C982.733 712.301 981.436 714.327 979.794 715.941C978.139 717.535 976.159 718.749 973.827 719.579C971.516 720.379 968.881 720.795 965.899 720.795C961.324 720.795 957.4 719.807 954.065 717.894C950.747 715.956 948.127 713.139 946.209 709.37C944.751 706.426 943.832 702.921 943.497 698.818H998.422H1000.42V696.818V691.705C1000.42 684.212 999.43 677.779 997.372 672.47C995.342 667.235 992.581 662.94 989.047 659.662C985.582 656.415 981.71 654.045 977.438 652.585L976.793 654.471L977.438 652.585C973.248 651.152 968.99 650.432 964.672 650.432C957.239 650.432 950.645 652.259 944.965 655.973C939.349 659.633 934.991 664.731 931.881 671.202L931.879 671.206C928.797 677.656 927.285 685.051 927.285 693.341C927.285 701.63 928.796 708.994 931.882 715.381L931.882 715.381L931.888 715.394C935.012 721.748 939.472 726.743 945.262 730.326ZM984.083 684.386H943.629C944.01 681.786 944.787 679.308 945.958 676.945C947.681 673.469 950.126 670.666 953.315 668.509L953.319 668.506C956.456 666.374 960.211 665.273 964.672 665.273C968.718 665.273 972.121 666.201 974.961 667.984L974.969 667.989C977.887 669.801 980.125 672.264 981.701 675.417L981.705 675.424L981.708 675.431C983.056 678.074 983.857 681.05 984.083 684.386Z" stroke="white" stroke-width="4"/>
<path d="M843.217 761.455V763.455H845.217H857.285H859.285V761.455V724.918C859.664 725.44 860.067 725.985 860.492 726.552L860.497 726.558L860.501 726.564C862.343 728.982 864.912 731.073 868.118 732.874L868.126 732.879L868.133 732.883C871.567 734.773 875.978 735.636 881.217 735.636C888.118 735.636 894.286 733.887 899.654 730.345L899.662 730.34C905.012 726.774 909.16 721.77 912.127 715.408L912.128 715.404C915.105 708.983 916.558 701.474 916.558 692.932C916.558 684.456 915.105 676.996 912.127 670.609C909.158 664.242 904.988 659.252 899.598 655.719C894.195 652.179 887.977 650.432 881.013 650.432C875.71 650.432 871.269 651.31 867.858 653.248C864.714 655.019 862.194 657.098 860.387 659.52L860.384 659.524C859.843 660.253 859.34 660.94 858.876 661.586V653.455V651.455H856.876H845.217H843.217V653.455V761.455ZM898.013 707.254L898.01 707.262C896.418 711.496 894.064 714.795 890.972 717.237C888.009 719.571 884.258 720.795 879.581 720.795C875.107 720.795 871.459 719.638 868.518 717.419C865.514 715.118 863.18 711.912 861.555 707.708C859.922 703.447 859.081 698.466 859.081 692.727C859.081 687.053 859.906 682.177 861.503 678.058L861.504 678.053C863.092 673.925 865.4 670.814 868.39 668.617L868.39 668.617L868.401 668.61C871.338 666.422 875.023 665.273 879.581 665.273C884.34 665.273 888.127 666.488 891.086 668.789L891.095 668.796L891.104 668.803C894.179 671.139 896.506 674.343 898.06 678.496L898.063 678.505L898.067 678.513C899.67 682.682 900.49 687.411 900.49 692.727C900.49 698.11 899.654 702.944 898.013 707.254Z" stroke="white" stroke-width="4"/>
<path d="M771.468 730.263L771.473 730.266C777.182 733.866 783.783 735.636 791.205 735.636C798.625 735.636 805.211 733.866 810.888 730.263C816.574 726.677 820.974 721.666 824.091 715.29C827.25 708.898 828.795 701.495 828.795 693.136C828.795 684.712 827.251 677.258 824.092 670.832C820.976 664.422 816.576 659.392 810.887 655.804C805.21 652.202 798.625 650.432 791.205 650.432C783.783 650.432 777.182 652.203 771.473 655.803L771.473 655.803L771.468 655.806C765.815 659.393 761.417 664.423 758.268 670.828L758.268 670.828L758.264 670.836C755.141 677.261 753.614 684.713 753.614 693.136C753.614 701.494 755.142 708.896 758.266 715.287L758.27 715.295C761.419 721.667 765.817 726.676 771.468 730.263ZM803.256 717.087C800.203 719.512 796.239 720.795 791.205 720.795C786.171 720.795 782.206 719.512 779.153 717.087C775.985 714.571 773.617 711.252 772.062 707.065C770.482 702.808 769.682 698.171 769.682 693.136C769.682 688.102 770.482 683.446 772.064 679.152C773.62 674.929 775.991 671.574 779.162 669.025C782.215 666.571 786.176 665.273 791.205 665.273C796.233 665.273 800.194 666.571 803.247 669.025C806.418 671.574 808.789 674.929 810.345 679.152C811.927 683.446 812.727 688.102 812.727 693.136C812.727 698.171 811.927 702.808 810.347 707.065C808.793 711.252 806.425 714.571 803.256 717.087Z" stroke="white" stroke-width="4"/>
<path d="M739.192 627.273V625.273H737.192H725.124H723.124V627.273V732V734H725.124H737.192H739.192V732V627.273Z" stroke="white" stroke-width="4"/>
<path d="M653.605 730.326L653.612 730.33L653.618 730.333C659.472 733.897 666.374 735.636 674.243 735.636C679.766 735.636 684.805 734.786 689.329 733.049L689.342 733.044C693.84 731.281 697.666 728.814 700.781 725.625L700.789 725.617C703.903 722.393 706.128 718.644 707.448 714.388L708.058 712.425L706.079 711.87L694.42 708.597L692.651 708.101L692.007 709.82C691.076 712.301 689.78 714.327 688.138 715.941C686.483 717.535 684.503 718.749 682.171 719.579C679.86 720.379 677.225 720.795 674.243 720.795C669.667 720.795 665.744 719.807 662.409 717.894C659.091 715.956 656.471 713.139 654.553 709.37C653.095 706.426 652.176 702.921 651.841 698.818H706.766H708.766V696.818V691.705C708.766 684.212 707.774 677.779 705.716 672.47C703.686 667.235 700.925 662.94 697.391 659.662C693.926 656.415 690.054 654.045 685.782 652.585L685.137 654.471L685.782 652.585C681.591 651.152 677.333 650.432 673.016 650.432C665.583 650.432 658.989 652.259 653.309 655.973C647.693 659.633 643.334 664.731 640.224 671.202L640.222 671.206C637.14 677.656 635.629 685.051 635.629 693.341C635.629 701.63 637.14 708.994 640.226 715.381L640.226 715.381L640.232 715.394C643.355 721.748 647.816 726.743 653.605 730.326ZM692.426 684.386H651.973C652.354 681.786 653.131 679.308 654.302 676.945C656.024 673.469 658.47 670.666 661.659 668.509L661.663 668.506C664.8 666.374 668.555 665.273 673.016 665.273C677.062 665.273 680.465 666.201 683.305 667.984L683.313 667.989C686.231 669.801 688.468 672.264 690.045 675.417L690.048 675.424L690.052 675.431C691.399 678.074 692.2 681.05 692.426 684.386Z" stroke="white" stroke-width="4"/>
<path d="M630.07 654.148L631.067 651.455H628.195H615.104H613.68L613.214 652.8L593.013 711.116L572.812 652.8L572.346 651.455H570.922H557.831H554.959L555.955 654.148L585.001 732.694L585.484 734H586.876H599.149H600.542L601.025 732.694L630.07 654.148Z" stroke="white" stroke-width="4"/>
<path d="M494.84 730.326L494.846 730.33L494.852 730.333C500.706 733.897 507.608 735.636 515.477 735.636C521.001 735.636 526.039 734.786 530.564 733.049L530.577 733.044C535.074 731.281 538.9 728.814 542.016 725.625L542.024 725.617C545.137 722.393 547.362 718.644 548.683 714.388L549.292 712.425L547.313 711.87L535.654 708.597L533.886 708.101L533.241 709.82C532.311 712.301 531.015 714.327 529.373 715.941C527.717 717.535 525.737 718.749 523.406 719.579C521.094 720.379 518.459 720.795 515.477 720.795C510.902 720.795 506.979 719.807 503.644 717.894C500.325 715.956 497.705 713.139 495.788 709.37C494.329 706.426 493.41 702.921 493.075 698.818H548H550V696.818V691.705C550 684.212 549.009 677.779 546.95 672.47C544.92 667.235 542.159 662.94 538.625 659.662C535.16 656.415 531.289 654.045 527.016 652.585L526.371 654.471L527.016 652.585C522.826 651.152 518.568 650.432 514.25 650.432C506.818 650.432 500.223 652.259 494.543 655.973C488.927 659.633 484.569 664.731 481.459 671.202L481.457 671.206C478.375 677.656 476.864 685.051 476.864 693.341C476.864 701.63 478.375 708.994 481.461 715.381L481.461 715.381L481.466 715.394C484.59 721.748 489.05 726.743 494.84 730.326ZM533.661 684.386H493.207C493.588 681.786 494.365 679.308 495.536 676.945C497.259 673.469 499.704 670.666 502.893 668.509L502.897 668.506C506.034 666.374 509.789 665.273 514.25 665.273C518.296 665.273 521.7 666.201 524.539 667.984L524.547 667.989C527.465 669.801 529.703 672.264 531.279 675.417L531.283 675.424L531.286 675.431C532.634 678.074 533.435 681.05 533.661 684.386Z" stroke="white" stroke-width="4"/>
<path d="M458.923 650.624C454.904 642.48 449.096 636.196 441.512 631.831C433.921 627.427 424.866 625.273 414.432 625.273H380.682H378.682V627.273V732V734H380.682H413C423.897 734 433.288 731.851 441.085 727.452L441.091 727.449C448.878 723.019 454.813 716.685 458.872 708.496L458.873 708.493C462.924 700.284 464.909 690.575 464.909 679.432C464.909 668.358 462.942 658.733 458.923 650.624ZM458.923 650.624C458.923 650.625 458.924 650.625 458.924 650.626L457.131 651.511M458.923 650.624C458.923 650.624 458.923 650.623 458.923 650.623L457.131 651.511M457.131 651.511C460.983 659.284 462.909 668.591 462.909 679.432C462.909 690.341 460.966 699.733 457.08 707.608L414.432 627.273C424.591 627.273 433.284 629.369 440.511 633.562C447.739 637.722 453.278 643.705 457.131 651.511ZM444.67 658.417L444.672 658.421C447.29 664.206 448.636 671.189 448.636 679.432C448.636 687.741 447.273 694.793 444.621 700.646C441.992 706.451 438.025 710.888 432.698 714.014C427.393 717.127 420.593 718.75 412.182 718.75H395.364V640.523H413.614C421.531 640.523 427.985 642.122 433.087 645.196L433.095 645.201C438.212 648.252 442.068 652.634 444.67 658.417Z" stroke="white" stroke-width="4"/>
<path d="M930.442 558V529.479L936.666 523.713L964.713 559.239L965.313 560H966.283H981.624H985.76L983.191 556.758L948.651 513.158L980.591 480.861L983.96 477.455H979.169H964.237H963.398L962.811 478.053L930.442 511V453.273V451.273H928.442H916.374H914.374V453.273V558V560H916.374H928.442H930.442V558Z" stroke="white" stroke-width="4"/>
<path d="M834.851 497.147L834.849 497.151C831.766 503.568 830.254 510.912 830.254 519.136C830.254 527.223 831.732 534.493 834.739 540.901C837.75 547.318 842.08 552.402 847.728 556.094C853.421 559.817 860.156 561.636 867.845 561.636C873.889 561.636 879.281 560.516 883.967 558.209L883.973 558.206C888.637 555.892 892.425 552.757 895.29 548.791C898.175 544.809 899.983 540.329 900.71 535.382L901.047 533.091H898.732H886.663H885.12L884.729 534.584C884.049 537.179 882.922 539.352 881.368 541.145C879.799 542.954 877.885 544.344 875.6 545.32C873.321 546.292 870.746 546.795 867.845 546.795C863.441 546.795 859.694 545.655 856.52 543.428C853.351 541.181 850.842 537.999 849.025 533.793C847.244 529.593 846.322 524.587 846.322 518.727C846.322 513.012 847.259 508.134 849.065 504.044C850.914 499.902 853.437 496.785 856.605 494.601L856.609 494.599C859.789 492.397 863.509 491.273 867.845 491.273C872.807 491.273 876.516 492.57 879.196 494.959L879.205 494.967L879.213 494.974C882.122 497.507 883.92 500.34 884.726 503.475L885.113 504.977H886.663H898.732H901.029L900.713 502.702C899.986 497.473 898.105 492.847 895.05 488.872C892.013 484.921 888.121 481.858 883.411 479.684C878.683 477.502 873.415 476.432 867.641 476.432C860.208 476.432 853.614 478.259 847.934 481.973C842.321 485.631 837.962 490.71 834.851 497.147Z" stroke="white" stroke-width="4"/>
<path d="M763.506 558.838L763.519 558.844C767.867 560.854 772.675 561.841 777.909 561.841C782.666 561.841 786.82 561.132 790.307 559.633C793.655 558.193 796.431 556.407 798.563 554.237C799.014 553.778 799.44 553.321 799.841 552.866V558V560H801.841H813.909H815.909V558V506.25C815.909 499.822 814.86 494.472 812.593 490.354C810.407 486.382 807.602 483.318 804.144 481.266C800.885 479.31 797.472 478.01 793.914 477.384C790.56 476.756 787.539 476.432 784.864 476.432C780.725 476.432 776.531 477.003 772.286 478.134C767.955 479.263 763.962 481.264 760.314 484.117C756.591 487.022 753.677 491.033 751.525 496.053L750.687 498.009L752.691 498.724L764.146 502.815L765.864 503.429L766.632 501.774C767.791 499.278 769.848 496.821 772.943 494.436C775.751 492.272 779.782 491.068 785.273 491.068C790.521 491.068 794.052 492.387 796.267 494.658L796.267 494.658L796.276 494.667C798.571 496.99 799.841 500.347 799.841 505.023V505.432C799.841 506.834 799.389 507.429 798.766 507.778L798.757 507.784L798.747 507.789C797.751 508.362 795.909 508.889 792.983 509.222C789.995 509.531 786.111 509.993 781.336 510.607L781.331 510.608C777.624 511.093 773.935 511.751 770.264 512.582C766.52 513.403 763.072 514.657 759.93 516.354C756.665 518.118 754.039 520.572 752.081 523.695C750.046 526.906 749.114 530.96 749.114 535.705C749.114 541.138 750.385 545.901 753.024 549.898L753.029 549.905C755.626 553.801 759.135 556.781 763.506 558.838ZM790.832 544.448L790.824 544.452C787.924 546.113 784.265 547 779.75 547C775.24 547 771.689 546.011 768.964 544.178C766.474 542.45 765.182 539.936 765.182 536.318C765.182 533.612 765.896 531.725 767.105 530.415C768.512 528.893 770.387 527.713 772.807 526.917L772.814 526.914L772.821 526.912C775.413 526.037 778.217 525.4 781.236 525.006L781.238 525.006C782.518 524.837 784.194 524.634 786.268 524.396L786.282 524.394L786.296 524.393C788.426 524.118 790.607 523.809 792.838 523.465L792.851 523.463L792.863 523.461C795.165 523.078 797.215 522.637 799.005 522.136L799.018 522.133L799.03 522.129C799.31 522.047 799.58 521.962 799.841 521.874V529.568C799.841 532.475 799.089 535.253 797.55 537.93L797.546 537.937L797.541 537.945C796.07 540.558 793.86 542.731 790.832 544.448Z" stroke="white" stroke-width="4"/>
<path d="M738.642 479.455V477.455H736.642H721.869V460.636V458.636H719.869H707.801H705.801V460.636V477.455H695.938H693.938V479.455V489.682V491.682H695.938H705.801V538.773C705.801 543.651 706.933 547.865 709.337 551.277L709.341 551.283L709.345 551.289C711.69 554.564 714.655 557.029 718.226 558.646L718.234 558.649C721.75 560.224 725.368 561.023 729.074 561.023C731.399 561.023 733.415 560.849 735.079 560.465C736.575 560.151 737.823 559.821 738.776 559.464L740.41 558.851L740.024 557.149L737.57 546.308L737.139 544.406L735.227 544.789L733.222 545.19C732.517 545.3 731.553 545.364 730.301 545.364C728.747 545.364 727.286 545.127 725.909 544.661C724.846 544.262 723.892 543.481 723.071 542.147C722.352 540.893 721.869 538.764 721.869 535.5V491.682H736.642H738.642V489.682V479.455Z" stroke="white" stroke-width="4"/>
<path d="M667.578 479.69L667.787 481.455H669.564H681.837H683.902L683.836 479.39C683.652 473.707 681.883 468.591 678.534 464.098C675.242 459.637 670.802 456.163 665.283 453.653C659.731 451.094 653.439 449.841 646.45 449.841C639.52 449.841 633.184 451.115 627.474 453.7C621.8 456.25 617.22 459.87 613.794 464.572L613.792 464.574C610.352 469.31 608.655 474.844 608.655 481.091C608.655 488.652 611.237 494.918 616.464 499.698C621.525 504.325 628.305 507.806 636.693 510.218L636.696 510.218L649.583 513.9L649.59 513.902L649.597 513.904C653.201 514.905 656.541 516.07 659.62 517.394C662.57 518.663 664.871 520.278 666.587 522.205C668.144 523.953 668.996 526.278 668.996 529.364C668.996 532.755 668.008 535.654 666.052 538.146C664.044 540.669 661.289 542.693 657.706 544.185C654.131 545.639 650.049 546.386 645.428 546.386C641.472 546.386 637.808 545.804 634.423 544.655C631.132 543.494 628.459 541.761 626.352 539.474C624.368 537.252 623.183 534.41 622.875 530.828L622.717 529H620.882H607.791H605.643L605.796 531.142C606.23 537.208 608.098 542.597 611.432 547.25L611.439 547.259C614.805 551.906 619.395 555.492 625.133 558.038L625.138 558.04C630.936 560.597 637.717 561.841 645.428 561.841C653.687 561.841 660.834 560.459 666.795 557.606C672.735 554.779 677.338 550.919 680.5 545.994C683.683 541.089 685.268 535.596 685.268 529.568C685.268 524.388 684.206 519.871 681.969 516.118C679.82 512.511 677.073 509.537 673.73 507.221C670.53 504.947 667.16 503.144 663.62 501.821C660.233 500.543 657.135 499.532 654.328 498.794C654.326 498.794 654.324 498.793 654.322 498.793L643.697 495.932L643.698 495.932L643.687 495.929C641.81 495.436 639.736 494.79 637.464 493.988C635.278 493.183 633.188 492.171 631.193 490.949C629.31 489.763 627.779 488.303 626.58 486.568C625.506 484.937 624.928 482.936 624.928 480.477C624.928 477.549 625.754 474.983 627.404 472.712C629.108 470.412 631.5 468.556 634.666 467.176C637.843 465.806 641.619 465.091 646.041 465.091C652.077 465.091 657.027 466.451 661.001 469.058C664.871 471.598 667.034 475.095 667.578 479.69Z" stroke="white" stroke-width="4"/>
<path d="M590.551 453.273V451.273H588.551H576.483H574.483V453.273V558V560H576.483H588.551H590.551V558V453.273Z" stroke="white" stroke-width="4"/>
<path d="M556.379 453.273V451.273H554.379H542.311H540.311V453.273V558V560H542.311H554.379H556.379V558V453.273Z" stroke="white" stroke-width="4"/>
<path d="M508.139 477.455H506.139V479.455V525.886C506.139 530.508 505.13 534.127 503.262 536.884L503.258 536.89L503.254 536.896C501.318 539.8 498.954 541.901 496.164 543.266L496.156 543.27C493.287 544.688 490.538 545.364 487.889 545.364C483.388 545.364 479.802 543.857 476.968 540.876C474.189 537.918 472.707 533.882 472.707 528.545V479.455V477.455H470.707H458.639H456.639V479.455V529.364C456.639 536.248 457.761 542.117 460.12 546.872L460.123 546.877C462.461 551.554 465.722 555.139 469.92 557.538L469.931 557.544C474.084 559.88 478.793 561.023 484.003 561.023C490.247 561.023 495.589 559.566 499.889 556.511L499.898 556.504C502.347 554.743 504.431 552.746 506.139 550.512V558V560H508.139H520.207H522.207V558V479.455V477.455H520.207H508.139Z" stroke="white" stroke-width="4"/>
<path d="M378.682 558V560H380.682H393.364H395.364V558V513.159H438.773H440.773V511.159V499.909V497.909H438.773H395.364V466.523H443.477H445.477V464.523V453.273V451.273H443.477H380.682H378.682V453.273V558Z" stroke="white" stroke-width="4"/>
<path d="M876.074 382.326L876.08 382.33L876.087 382.333C881.94 385.897 888.843 387.636 896.712 387.636C902.235 387.636 907.273 386.786 911.798 385.049L911.811 385.044C916.308 383.281 920.135 380.814 923.25 377.625L923.258 377.617C926.372 374.393 928.596 370.644 929.917 366.388L930.526 364.425L928.548 363.87L916.889 360.597L915.12 360.101L914.475 361.82C913.545 364.301 912.249 366.327 910.607 367.941C908.951 369.535 906.972 370.749 904.64 371.579C902.328 372.379 899.693 372.795 896.712 372.795C892.136 372.795 888.213 371.807 884.878 369.894C881.559 367.956 878.94 365.139 877.022 361.37C875.564 358.426 874.644 354.921 874.309 350.818H929.234H931.234V348.818V343.705C931.234 336.212 930.243 329.779 928.184 324.47C926.154 319.235 923.394 314.94 919.859 311.662C916.394 308.415 912.523 306.045 908.251 304.585L907.606 306.471L908.251 304.585C904.06 303.152 899.802 302.432 895.484 302.432C888.052 302.432 881.458 304.259 875.778 307.973C870.162 311.633 865.803 316.731 862.693 323.202L862.691 323.206C859.609 329.656 858.098 337.051 858.098 345.341C858.098 353.63 859.609 360.994 862.695 367.381L862.695 367.381L862.701 367.394C865.824 373.748 870.284 378.743 876.074 382.326ZM914.895 336.386H874.442C874.823 333.786 875.6 331.308 876.771 328.945C878.493 325.469 880.939 322.666 884.128 320.509L884.131 320.506C887.268 318.374 891.024 317.273 895.484 317.273C899.531 317.273 902.934 318.201 905.773 319.984L905.781 319.989C908.699 321.801 910.937 324.264 912.514 327.417L912.517 327.424L912.521 327.431C913.868 330.074 914.669 333.05 914.895 336.386Z" stroke="white" stroke-width="4"/>
<path d="M852.539 306.148L853.535 303.455H850.663H837.572H836.149L835.683 304.8L815.482 363.116L795.28 304.8L794.814 303.455H793.391H780.3H777.428L778.424 306.148L807.469 384.694L807.952 386H809.345H821.618H823.011L823.494 384.694L852.539 306.148Z" stroke="white" stroke-width="4"/>
<path d="M750.264 384V386H752.264H764.332H766.332V384V305.455V303.455H764.332H752.264H750.264V305.455V384ZM750.931 291.404L750.938 291.411L750.946 291.417C753.023 293.371 755.542 294.364 758.401 294.364C761.256 294.364 763.764 293.372 765.812 291.411C767.896 289.448 768.992 287.005 768.992 284.182C768.992 281.359 767.896 278.915 765.812 276.953C763.764 274.992 761.256 274 758.401 274C755.542 274 753.023 274.993 750.946 276.946L750.938 276.953L750.931 276.96C748.88 278.927 747.81 281.37 747.81 284.182C747.81 286.994 748.88 289.436 750.931 291.404Z" stroke="white" stroke-width="4"/>
<path d="M736.111 305.455V303.455H734.111H719.338V286.636V284.636H717.338H705.27H703.27V286.636V303.455H693.406H691.406V305.455V315.682V317.682H693.406H703.27V364.773C703.27 369.651 704.402 373.865 706.805 377.277L706.81 377.283L706.814 377.289C709.158 380.564 712.124 383.029 715.695 384.646L715.702 384.649C719.219 386.224 722.837 387.023 726.543 387.023C728.868 387.023 730.884 386.849 732.547 386.465C734.044 386.151 735.292 385.821 736.245 385.464L737.879 384.851L737.493 383.149L735.039 372.308L734.608 370.406L732.696 370.789L730.69 371.19C729.986 371.3 729.022 371.364 727.77 371.364C726.216 371.364 724.755 371.127 723.378 370.661C722.315 370.262 721.361 369.481 720.54 368.147C719.82 366.893 719.338 364.764 719.338 361.5V317.682H734.111H736.111V315.682V305.455Z" stroke="white" stroke-width="4"/>
<path d="M627.522 384.838L627.534 384.844C631.883 386.854 636.691 387.841 641.925 387.841C646.681 387.841 650.836 387.132 654.323 385.633C657.671 384.193 660.446 382.407 662.579 380.237C663.029 379.778 663.456 379.321 663.857 378.866V384V386H665.857H677.925H679.925V384V332.25C679.925 325.822 678.875 320.472 676.609 316.354C674.423 312.382 671.617 309.318 668.16 307.266C664.9 305.31 661.488 304.01 657.93 303.384C654.576 302.756 651.555 302.432 648.879 302.432C644.741 302.432 640.547 303.003 636.301 304.134C631.971 305.263 627.977 307.264 624.33 310.117C620.607 313.022 617.692 317.033 615.541 322.053L614.703 324.009L616.707 324.724L628.161 328.815L629.879 329.429L630.648 327.774C631.807 325.278 633.864 322.821 636.958 320.436C639.766 318.272 643.798 317.068 649.288 317.068C654.537 317.068 658.067 318.387 660.283 320.658L660.283 320.658L660.292 320.667C662.586 322.99 663.857 326.347 663.857 331.023V331.432C663.857 332.833 663.404 333.429 662.781 333.778L662.772 333.784L662.763 333.789C661.767 334.362 659.925 334.889 656.998 335.222C654.011 335.531 650.127 335.993 645.352 336.607L645.347 336.608C641.64 337.093 637.951 337.751 634.28 338.582C630.536 339.403 627.088 340.657 623.946 342.354C620.68 344.118 618.054 346.572 616.096 349.695C614.062 352.906 613.129 356.96 613.129 361.705C613.129 367.138 614.401 371.901 617.04 375.898L617.045 375.905C619.642 379.801 623.15 382.781 627.522 384.838ZM654.847 370.448L654.84 370.452C651.94 372.113 648.281 373 643.766 373C639.255 373 635.705 372.011 632.979 370.178C630.49 368.45 629.197 365.936 629.197 362.318C629.197 359.612 629.911 357.725 631.121 356.415C632.527 354.893 634.402 353.713 636.823 352.917L636.83 352.914L636.837 352.912C639.429 352.037 642.232 351.4 645.252 351.006L645.254 351.006C646.534 350.837 648.209 350.634 650.283 350.396L650.297 350.394L650.311 350.393C652.442 350.118 654.623 349.809 656.854 349.465L656.866 349.463L656.879 349.461C659.18 349.078 661.231 348.637 663.021 348.136L663.033 348.133L663.046 348.129C663.325 348.047 663.596 347.962 663.857 347.874V355.568C663.857 358.475 663.104 361.253 661.566 363.93L661.561 363.937L661.557 363.945C660.085 366.558 657.876 368.731 654.847 370.448Z" stroke="white" stroke-width="4"/>
<path d="M547.293 382.326L547.299 382.33L547.305 382.333C553.159 385.897 560.061 387.636 567.93 387.636C573.454 387.636 578.492 386.786 583.017 385.049L583.03 385.044C587.527 383.281 591.353 380.814 594.469 377.625L594.477 377.617C597.59 374.393 599.815 370.644 601.136 366.388L601.745 364.425L599.766 363.87L588.107 360.597L586.339 360.101L585.694 361.82C584.764 364.301 583.468 366.327 581.826 367.941C580.17 369.535 578.19 370.749 575.859 371.579C573.547 372.379 570.912 372.795 567.93 372.795C563.355 372.795 559.432 371.807 556.097 369.894C552.778 367.956 550.158 365.139 548.241 361.37C546.782 358.426 545.863 354.921 545.528 350.818H600.453H602.453V348.818V343.705C602.453 336.212 601.462 329.779 599.403 324.47C597.373 319.235 594.613 314.94 591.078 311.662C587.613 308.415 583.742 306.045 579.469 304.585L578.825 306.471L579.469 304.585C575.279 303.152 571.021 302.432 566.703 302.432C559.271 302.432 552.677 304.259 546.996 307.973C541.38 311.633 537.022 316.731 533.912 323.202L533.91 323.206C530.828 329.656 529.317 337.051 529.317 345.341C529.317 353.63 530.828 360.994 533.914 367.381L533.914 367.381L533.92 367.394C537.043 373.748 541.503 378.743 547.293 382.326ZM586.114 336.386H545.66C546.042 333.786 546.818 331.308 547.99 328.945C549.712 325.469 552.158 322.666 555.346 320.509L555.35 320.506C558.487 318.374 562.242 317.273 566.703 317.273C570.75 317.273 574.153 318.201 576.992 319.984L577 319.989C579.918 321.801 582.156 324.264 583.732 327.417L583.736 327.424L583.74 327.431C585.087 330.074 585.888 333.05 586.114 336.386Z" stroke="white" stroke-width="4"/>
<path d="M481.811 384V386H483.811H495.879H497.879V384V334.295C497.879 331.087 498.646 328.305 500.136 325.889C501.684 323.401 503.769 321.463 506.428 320.058L506.428 320.058L506.435 320.054C509.111 318.625 512.19 317.886 515.72 317.886C517.223 317.886 518.63 317.998 519.943 318.217L519.969 318.221L519.995 318.225C521.491 318.434 522.314 318.574 522.599 318.645L525.084 319.266V316.705V304.432V302.622L523.283 302.442C522.525 302.366 521.46 302.313 520.118 302.279C518.779 302.245 517.653 302.227 516.743 302.227C511.675 302.227 507.068 303.537 502.976 306.178L504.061 307.858L502.976 306.178C500.794 307.586 498.954 309.237 497.47 311.13V305.455V303.455H495.47H483.811H481.811V305.455V384Z" stroke="white" stroke-width="4"/>
<path d="M464.955 314H467.34L466.924 311.651C465.932 306.053 464.116 301.028 461.454 296.602C458.811 292.174 455.514 288.408 451.566 285.32C447.628 282.206 443.21 279.847 438.325 278.243C433.471 276.637 428.298 275.841 422.818 275.841C413.545 275.841 405.227 278.111 397.926 282.692C390.629 287.27 384.919 293.768 380.782 302.112C376.629 310.489 374.591 320.352 374.591 331.636C374.591 342.92 376.629 352.783 380.782 361.161C384.919 369.505 390.629 376.002 397.926 380.581C405.227 385.161 413.545 387.432 422.818 387.432C428.297 387.432 433.47 386.636 438.325 385.03C443.207 383.426 447.624 381.086 451.561 378.007L451.57 378.001C455.517 374.879 458.813 371.097 461.456 366.667C464.115 362.212 465.931 357.189 466.923 351.624L467.343 349.273H464.955H452.273H450.645L450.314 350.866C449.612 354.252 448.392 357.211 446.674 359.772L446.671 359.777C444.962 362.341 442.88 364.5 440.42 366.267C437.982 368.008 435.269 369.326 432.27 370.22C429.258 371.117 426.11 371.568 422.818 371.568C416.834 371.568 411.459 370.062 406.644 367.065C401.896 364.088 398.059 359.676 395.164 353.726C392.329 347.829 390.864 340.492 390.864 331.636C390.864 322.781 392.329 315.444 395.164 309.547C398.059 303.597 401.896 299.184 406.644 296.208C411.46 293.211 416.834 291.705 422.818 291.705C426.11 291.705 429.258 292.156 432.27 293.053C435.264 293.945 437.973 295.278 440.409 297.049L440.421 297.058L440.433 297.066C442.886 298.796 444.964 300.935 446.671 303.496L446.676 303.503L446.681 303.51C448.391 306.03 449.611 308.983 450.314 312.403L450.642 314H452.273H464.955Z" stroke="white" stroke-width="4"/>
</g>
<defs>
<clipPath id="clip0_1_2">
<rect width="1440" height="1024" fill="white"/>
</clipPath>
</defs>
</svg>
